<?xml version="1.0" encoding="UTF-8" standalone="no"?>
<!-- Created with Inkscape (http://www.inkscape.org/) -->

<svg
   width="133.26768mm"
   height="133.20897mm"
   viewBox="0 0 133.26768 133.20897"
   version="1.1"
   id="svg5"
   xml:space="preserve"
   xmlns:inkscape="http://www.inkscape.org/namespaces/inkscape"
   xmlns:sodipodi="http://sodipodi.sourceforge.net/DTD/sodipodi-0.dtd"
   xmlns="http://www.w3.org/2000/svg"
   xmlns:svg="http://www.w3.org/2000/svg"><sodipodi:namedview
     id="namedview7"
     pagecolor="#505050"
     bordercolor="#eeeeee"
     borderopacity="1"
     inkscape:showpageshadow="0"
     inkscape:pageopacity="0"
     inkscape:pagecheckerboard="0"
     inkscape:deskcolor="#505050"
     inkscape:document-units="mm"
     showgrid="false" /><defs
     id="defs2" /><g
     inkscape:label="Calque 1"
     inkscape:groupmode="layer"
     id="layer1"
     transform="translate(87.116594,-82.151548)"><g
       id="g493"
       transform="matrix(0.26458333,0,0,0.26458333,-87.1166,82.122178)"><g
         transform="translate(1,1)"
         id="g434">
	<path
   style="fill:#f2edda"
   d="m 498.2,209.031 v 83.627 c -19.627,-4.267 -34.133,-21.333 -34.133,-41.813 0,-20.48 14.506,-37.547 34.133,-41.814 z m -110.933,-0.853 c 23.893,0 42.667,18.773 42.667,42.667 0,23.894 -18.773,42.667 -42.667,42.667 -23.893,0 -42.667,-18.773 -42.667,-42.667 0,-23.894 18.773,-42.667 42.667,-42.667 z"
   id="path428" />
	<path
   style="fill:#ffe079"
   d="M 447,97.244 250.733,250.844 447,404.444 C 401.773,462.471 330.093,498.311 250.733,498.311 114.2,498.311 3.267,387.378 3.267,250.844 3.267,114.31 114.2,3.378 250.733,3.378 c 79.36,0 151.04,35.84 196.267,93.866"
   id="path430" />
	<path
   style="fill:#aab1ba"
   d="m 242.2,71.644 c 9.387,0 17.067,7.68 17.067,17.067 0,9.387 -7.68,17.067 -17.067,17.067 -9.387,0 -17.067,-7.68 -17.067,-17.067 0,-9.387 7.68,-17.067 17.067,-17.067"
   id="path432" />
</g><path
         style="fill:#51565f"
         d="M 251.733,503.578 C 112.64,503.578 0,390.938 0,251.844 0,112.75 112.64,0.111 251.733,0.111 c 77.653,0 152.747,35.84 199.68,95.573 0.853,0.853 0.853,1.707 0.853,3.413 0,0.853 -0.853,2.56 -1.707,2.56 l -196.267,153.6 c -1.707,1.707 -4.267,0.853 -5.973,-0.853 -1.707,-1.707 -0.853,-4.267 0.853,-5.973 L 442.025,97.391 C 396.8,41.924 325.973,8.644 251.733,8.644 c -133.973,0 -243.2,109.227 -243.2,243.2 0,133.973 109.227,243.2 243.2,243.2 74.24,0 145.067,-33.28 190.293,-88.747 L 278.186,277.444 c -1.707,-1.707 -2.56,-4.267 -0.853,-5.973 1.707,-1.707 4.267,-2.56 5.973,-0.853 L 450.56,402.031 c 0.853,0.853 1.707,1.707 1.707,2.56 0,0.853 0,2.56 -0.853,3.413 -46.934,59.734 -122.027,95.574 -199.681,95.574 z m 136.534,-204.8 c -25.6,0 -46.933,-21.333 -46.933,-46.933 0,-25.6 21.333,-46.933 46.933,-46.933 25.6,0 46.933,21.333 46.933,46.933 0,25.6 -21.333,46.933 -46.933,46.933 z m 0,-85.334 c -21.333,0 -38.4,17.067 -38.4,38.4 0,21.333 17.067,38.4 38.4,38.4 21.333,0 38.4,-17.067 38.4,-38.4 0,-21.333 -17.067,-38.4 -38.4,-38.4 z m 110.933,84.48 h -0.853 c -21.333,-4.267 -37.547,-23.893 -37.547,-46.08 0,-22.187 16.213,-41.813 37.547,-46.08 2.56,-0.853 4.267,0.853 5.12,3.413 0.853,2.56 -0.853,4.267 -3.413,5.12 -17.92,3.413 -30.72,19.627 -30.72,37.547 0,17.92 12.8,34.133 30.72,37.547 2.56,0.853 3.413,2.56 3.413,5.12 -0.854,1.707 -2.56,3.413 -4.267,3.413 z m -256,-186.88 c -11.947,0 -21.333,-9.387 -21.333,-21.333 0,-11.946 9.387,-21.333 21.333,-21.333 11.946,0 21.333,9.387 21.333,21.333 0,11.946 -9.386,21.333 -21.333,21.333 z m 0,-34.133 c -6.827,0 -12.8,5.973 -12.8,12.8 0,6.827 5.973,12.8 12.8,12.8 6.827,0 12.8,-5.973 12.8,-12.8 0,-6.827 -5.973,-12.8 -12.8,-12.8 z"
         id="path436" /><g
         id="g438">
</g><g
         id="g440">
</g><g
         id="g442">
</g><g
         id="g444">
</g><g
         id="g446">
</g><g
         id="g448">
</g><g
         id="g450">
</g><g
         id="g452">
</g><g
         id="g454">
</g><g
         id="g456">
</g><g
         id="g458">
</g><g
         id="g460">
</g><g
         id="g462">
</g><g
         id="g464">
</g><g
         id="g466">
</g></g></g></svg>
