<?xml version="1.0" encoding="UTF-8" standalone="no"?>
<!-- Created with Inkscape (http://www.inkscape.org/) -->

<svg
   width="13.758464mm"
   height="13.758591mm"
   viewBox="0 0 13.758464 13.758591"
   version="1.1"
   id="svg5"
   xml:space="preserve"
   xmlns:inkscape="http://www.inkscape.org/namespaces/inkscape"
   xmlns:sodipodi="http://sodipodi.sourceforge.net/DTD/sodipodi-0.dtd"
   xmlns="http://www.w3.org/2000/svg"
   xmlns:svg="http://www.w3.org/2000/svg"><sodipodi:namedview
     id="namedview7"
     pagecolor="#505050"
     bordercolor="#eeeeee"
     borderopacity="1"
     inkscape:showpageshadow="0"
     inkscape:pageopacity="0"
     inkscape:pagecheckerboard="0"
     inkscape:deskcolor="#505050"
     inkscape:document-units="mm"
     showgrid="false" /><defs
     id="defs2" /><g
     inkscape:label="Calque 1"
     inkscape:groupmode="layer"
     id="layer1"
     transform="translate(27.361991,-141.87674)"><g
       id="g90"
       transform="matrix(0.26458333,0,0,0.26458333,-27.361859,141.87687)"
       inkscape:export-filename="g90.svg"
       inkscape:export-xdpi="72"
       inkscape:export-ydpi="72"><g
         id="g33">
	<path
   style="fill:#fbd490"
   d="m 41,27 h -3 c -0.552,0 -1,-0.448 -1,-1 0,-0.552 0.448,-1 1,-1 h 3 c 0.552,0 1,0.448 1,1 0,0.552 -0.448,1 -1,1 z"
   id="path25" />
	<path
   style="fill:#fbd490"
   d="m 51,27 h -2 c -0.552,0 -1,-0.448 -1,-1 0,-0.552 0.448,-1 1,-1 h 2 c 0.552,0 1,0.448 1,1 0,0.552 -0.448,1 -1,1 z"
   id="path27" />
	<path
   style="fill:#f0c419"
   d="m 44.385,44.385 c -10.154,10.154 -26.616,10.154 -36.77,0 -10.154,-10.154 -10.154,-26.616 0,-36.77 10.154,-10.154 26.616,-10.154 36.77,0 L 26,26 Z"
   id="path29" />
	<circle
   style="fill:#556080"
   cx="23"
   cy="12"
   r="3"
   id="circle31" />
</g><g
         id="g35">
</g><g
         id="g37">
</g><g
         id="g39">
</g><g
         id="g41">
</g><g
         id="g43">
</g><g
         id="g45">
</g><g
         id="g47">
</g><g
         id="g49">
</g><g
         id="g51">
</g><g
         id="g53">
</g><g
         id="g55">
</g><g
         id="g57">
</g><g
         id="g59">
</g><g
         id="g61">
</g><g
         id="g63">
</g></g></g></svg>
